<?xml version="1.0" encoding="utf-8"?>
<svg version="1.1" xmlns="http://www.w3.org/2000/svg" xmlns:xlink="http://www.w3.org/1999/xlink" x="0px" y="0px"
	 viewBox="0 0 44 50" enable-background="new 0 0 44 50" xml:space="preserve">
<g>
	<g>
		<path fill-rule="evenodd" clip-rule="evenodd" fill="#1A2C56" d="M1,21.6C1,10.2,10.4,1,21.9,1C33.6,1,43,10.3,43,21.7
			c0,6.2-2.8,11.8-7.4,15.6l-11,10.6l0,0c-1.5,1.5-4.1,1.5-5.6,0L8,37c-0.6-0.5-1.2-1.1-1.8-1.7v-0.1l0,0C2.9,31.6,1,26.7,1,21.6z"
			/>
		<path fill="#FFFFFF" d="M21.9,50c-1.3,0-2.5-0.5-3.5-1.4L7.2,37.7C6.7,37.2,6,36.6,5.4,36l-0.3-0.3v-0.1C1.8,31.7,0,26.8,0,21.6
			C0,9.7,9.9,0,21.9,0C34.1,0,44,9.7,44,21.6c0,6.2-2.8,12.2-7.7,16.3L25.5,48.6C24.6,49.5,23.3,50,21.9,50z M7,34.9
			c0.5,0.5,1,1,1.5,1.4l11.2,10.9c1.1,1.2,3.2,1.2,4.3,0l11-10.7c4.4-3.8,7-9.3,7-14.9c0-10.9-9.1-19.7-20.1-19.7s-20,8.8-20,19.7
			c0,4.8,1.7,9.4,4.9,13L7,34.9z"/>
	</g>
</g>
<g>
	<path fill="#FFFFFF" d="M29.7,8.3c1.1,0.3,1.2,1,0.5,3.4l-0.5,1.9l-0.2,0.7c-0.2,0.7-0.3,1.2-0.4,1.8l-0.1,0.4
		c-0.2,1.2-0.5,2.3-0.9,3.2c0.7,0.1,1.4,0.2,2.1,0.3c-0.1-0.4,0-0.8,0.2-1.1c0.4-0.6,1.1-0.9,1.8-0.7c0.7,0.2,1.1,0.9,1.1,1.6
		c0,0.3-0.1,0.6-0.3,0.8c1.2,0.4,1.9,0.9,1.9,1.5c0,1.1-2.1,1.9-5.8,2.3l-0.7,0.1l0.5,6.3l0,0.2c-0.1,2-2.4,2.6-7,2.6l-0.6,0l-0.6,0
		c-4.3-0.1-6.3-0.8-6.4-2.7l0-0.2l0,0l0-0.1l0.6-6.1l-0.3,0c-3.9-0.4-6.2-1.2-6.2-2.4c0-0.6,0.7-1.1,2-1.6l0,0.2c0-0.2,0-0.3,0-0.5
		l0-0.2l-0.1-0.1c-0.4-0.3-0.7-0.7-0.6-1.1l0-0.1c0.1-0.4,0.7-0.6,1.2-0.6l0.1,0l0.1-0.2l0.1-0.2l0.1-0.1c0.2-0.3,0.4-0.5,0.7-0.5
		c0.3,0,0.5,0.2,0.8,0.6l0.1,0.2l0.1,0.2l0,0c0.5,0.1,1,0.3,1.2,0.5l0,0.1c0.1,0.3,0,0.5-0.3,0.9L14,20c0.6-0.1,1.3-0.2,2-0.2
		c-0.4-0.9-0.7-1.9-0.9-3.1c-0.2-0.9-0.3-1.6-0.6-2.6l-0.1-0.4L14,12.3c-0.8-2.8-0.8-3.6,0.3-3.9c2-0.6,5.7,2.7,6.9,6.5
		c0.5,1.6,0.7,3.2,0.7,4.5l0,0.2l0.2,0l0.2,0l0-0.1c-0.1-1.3,0.1-2.9,0.6-4.5C24,11.1,27.7,7.7,29.7,8.3z M21.5,25.7
		c-1.4,0-3.3,0.1-5.7,0.4l-0.4,4.8l0,0.1c0.1,1.2,1.9,1.7,5.8,1.8l0.6,0l0.3,0l0.6,0c3.7,0,5.4-0.6,5.5-1.7l0-0.1l-0.4-4.8l-0.8-0.1
		L26.1,26c-1.6-0.2-2.9-0.3-3.9-0.3L21.5,25.7z M21.7,26.3c0.4,0,0.6,0.2,0.9,0.8l0.1,0.2l0,0l0.1,0.2l0.1,0.2l0.1,0l0.3,0.1
		l0.3,0.1c0.6,0.1,0.9,0.3,1,0.6c0.1,0.3-0.1,0.6-0.5,1.1l-0.2,0.2l0,0l-0.2,0.2l-0.2,0.2l0.1,0.5l0,0.3c0,0.5,0,0.8-0.2,1l-0.1,0.1
		l-0.1,0c-0.2,0.1-0.3,0.1-0.4,0c-0.3-0.1-0.5-0.2-0.8-0.3L22,31.6l-0.3-0.1c-0.3,0.1-0.5,0.3-0.8,0.4l-0.3,0.1L20.4,32
		c-0.1,0-0.2,0-0.3,0L20,32l-0.1-0.1c-0.3-0.2-0.3-0.5-0.3-1.1l0-0.3l0,0l0.1-0.4l-0.3-0.3l-0.1-0.1l-0.2-0.2
		c-0.4-0.4-0.6-0.7-0.5-1.1c0.1-0.4,0.4-0.5,1-0.6c0.2,0,0.4-0.1,0.6-0.1l0.1,0l0-0.1c0.3-0.6,0.6-1.2,1-1.3L21.7,26.3L21.7,26.3z
		 M21.8,27.5L21.8,27.5l-0.1,0.1c-0.1,0.2-0.3,0.6-0.4,0.8c-0.1,0.2-0.2,0.3-0.4,0.3c-0.2,0-0.5,0.1-0.7,0.1l-0.3,0.1l-0.1,0
		l0.1,0.2c0.2,0.2,0.4,0.4,0.6,0.6c0.1,0.1,0.2,0.3,0.1,0.4c0,0.2-0.1,0.4-0.1,0.6l0,0.3l0,0.1l0.2-0.1c0.1,0,0.2-0.1,0.4-0.2
		l0.2-0.1l0.2-0.1c0.1-0.1,0.3-0.1,0.5,0c0.2,0.1,0.4,0.2,0.6,0.3l0.2,0.1l0.1,0l0-0.1l0-0.3l0,0L22.8,30c0-0.1,0-0.3,0.1-0.4
		c0.2-0.2,0.3-0.3,0.5-0.5l0.2-0.2l0.1-0.1l-0.1,0l-0.1,0c-0.3-0.1-0.6-0.1-0.9-0.1c-0.2,0-0.3-0.1-0.4-0.3
		c-0.1-0.2-0.2-0.4-0.3-0.6l-0.1-0.2L21.8,27.5z M31.5,27.4c0.9,0,1.6,0.7,1.6,1.6c0,0.9-0.7,1.6-1.6,1.6s-1.6-0.7-1.6-1.6
		C29.9,28.1,30.6,27.4,31.5,27.4z M31.5,28.3c-0.4,0-0.7,0.3-0.7,0.7c0,0.4,0.3,0.7,0.7,0.7s0.7-0.3,0.7-0.7
		C32.2,28.6,31.9,28.3,31.5,28.3z M10.3,25.4c0.9,0,1.6,0.7,1.6,1.6s-0.7,1.6-1.6,1.6S8.7,27.8,8.7,27S9.4,25.4,10.3,25.4z
		 M10.3,26.3c-0.4,0-0.7,0.3-0.7,0.7c0,0.4,0.3,0.7,0.7,0.7S11,27.3,11,27C11,26.6,10.7,26.3,10.3,26.3z M21.8,22.3
		c-1.8,0-3.4,0.1-4.8,0.3l-0.4,0.1L16,22.7l-0.2,2.4l0.7-0.1l0.9-0.1c1.5-0.1,2.8-0.2,3.8-0.2l0.5,0c1.4,0,3.3,0.1,5.9,0.5l-0.2-2.4
		L27,22.7c-1.2-0.3-2.7-0.4-4.2-0.4l-0.5,0L21.8,22.3z M22.1,20.5h-0.7l-0.7,0l-0.7,0c-6,0.1-10.6,1-10.6,1.8c0,0.4,2.2,1.1,5.6,1.5
		l0.1-1.4c0-0.2,0.2-0.4,0.4-0.4c1.7-0.4,3.8-0.5,6.2-0.5c2.4,0,4.5,0.2,6.2,0.7c0.2,0,0.3,0.2,0.3,0.4l0.1,1.3l0,0l0.3,0
		c3.2-0.4,5.3-1,5.3-1.4c0-0.3-0.8-0.6-2.1-0.9c-0.1,0-0.1,0-0.2,0C29.7,20.8,26.1,20.5,22.1,20.5z M12.2,18.4l-0.3,0.5
		c-0.1,0.1-0.2,0.2-0.4,0.2c-0.1,0-0.2,0-0.3,0l-0.2,0l0.1,0.1c0.1,0.1,0.2,0.2,0.3,0.2l0.1,0.1c0.1,0.1,0.2,0.3,0.2,0.5
		c0,0.1-0.1,0.2-0.1,0.4c0.4-0.1,0.9-0.2,1.4-0.3l0,0V20c0-0.1,0.1-0.2,0.1-0.3c0.1-0.1,0.2-0.2,0.3-0.3l0.1-0.1l-0.1,0
		c-0.2,0-0.3-0.1-0.4-0.1l-0.1,0c-0.2,0-0.3-0.1-0.4-0.3c-0.1-0.1-0.1-0.3-0.2-0.4L12.2,18.4z M31.3,19.4c-0.1,0.2-0.1,0.5,0,0.7
		l0.1,0.1c0.2,0,0.4,0.1,0.6,0.1l0,0c0.3-0.1,0.5-0.3,0.5-0.6c0-0.3-0.2-0.6-0.5-0.7C31.7,19.1,31.4,19.2,31.3,19.4z M23.8,15.2
		c-0.4,1.5-0.6,3-0.6,4.2l0,0.2l0.3,0c1.3,0,2.5,0.1,3.7,0.2l-0.1,0.1c0.4-0.8,0.7-1.9,0.9-3l0.2-1.1l0.1-0.5
		c0.2-0.7,0.3-1.4,0.6-2.4l0.3-1.1l0.2-0.6c0.4-1.5,0.3-1.9,0-2C28.1,8.8,24.8,11.7,23.8,15.2z M20.3,15.2c-1.1-3.4-4.4-6.3-5.8-5.9
		c-0.3,0.1-0.4,0.5,0,2l0.2,0.6l0.3,1.1c0.3,1.2,0.6,2,0.7,2.9l0.1,0.2l0.2,0.9c0.2,1,0.5,1.8,0.8,2.5l0.1,0.2
		c1.2-0.1,2.6-0.1,4-0.1l0-0.2C21,18.1,20.8,16.7,20.3,15.2z M11.4,11.6c0.9,0,1.6,0.7,1.6,1.6c0,0.9-0.7,1.6-1.6,1.6
		S9.8,14,9.8,13.1C9.8,12.3,10.5,11.6,11.4,11.6z M11.4,12.5c-0.4,0-0.7,0.3-0.7,0.7s0.3,0.7,0.7,0.7s0.7-0.3,0.7-0.7
		S11.8,12.5,11.4,12.5z"/>
</g>
</svg>
