<?xml version="1.0" encoding="utf-8"?>
<svg version="1.1" xmlns="http://www.w3.org/2000/svg" xmlns:xlink="http://www.w3.org/1999/xlink" x="0px" y="0px"
	 viewBox="0 0 44 50" enable-background="new 0 0 44 50" xml:space="preserve">
<g>
	<g>
		<path fill-rule="evenodd" clip-rule="evenodd" fill="#1A2C56" d="M1,21.6C1,10.2,10.4,1,21.9,1c11.7,0,21.1,9.3,21.1,20.7
			c0,6.2-2.8,11.8-7.4,15.6l-11,10.6l0,0c-1.5,1.5-4.1,1.5-5.6,0L8,37c-0.6-0.5-1.2-1.1-1.8-1.7v-0.1l0,0C2.9,31.6,1,26.7,1,21.6z"
			/>
		<path fill="#FFFFFF" d="M21.9,50c-1.3,0-2.5-0.5-3.5-1.4L7.2,37.7C6.7,37.2,6,36.6,5.4,36l-0.3-0.3v-0.1C1.8,31.7,0,26.8,0,21.6
			C0,9.7,9.9,0,21.9,0C34.1,0,44,9.7,44,21.6c0,6.2-2.8,12.2-7.7,16.3L25.5,48.6C24.6,49.5,23.3,50,21.9,50z M7,34.9
			c0.5,0.5,1,1,1.5,1.4l11.2,10.9c1.1,1.2,3.2,1.2,4.3,0l11-10.7c4.4-3.8,7-9.3,7-14.9c0-10.9-9.1-19.7-20.1-19.7s-20,8.8-20,19.7
			c0,4.8,1.7,9.4,4.9,13L7,34.9z"/>
	</g>
</g>
<g>
	<path fill-rule="evenodd" clip-rule="evenodd" fill="#FFFFFF" d="M13.4,15.7c2.7,0,4.9,2.2,4.9,4.9l0,0v7.5
		c0,0.2-0.2,0.4-0.4,0.4c-0.2,0-0.4-0.2-0.4-0.4v-4.7c-0.2,0.2-0.3,0.5-0.5,0.7l-0.2,0.1l0,0l-1.7,1.7l0,0l0,0l0,0l0,0l0,0l0,0l0,0
		l0,0l0,0l0,0l0,0l0,0l0,0H15h-0.1l0,0l0,0l0,0l0,0l0,0l0,0l0,0l0,0l0,0l0,0l0,0l0,0l0,0l0,0l0,0l0,0l0,0l0,0v-8.8
		c-0.3-0.1-0.6-0.1-1-0.1s-0.8,0.1-1.1,0.2v5.9c0,0.2-0.2,0.4-0.4,0.4S12,23.3,12,23.1v-5.6c-1.2,0.7-2,2-2,3.5l0,0l0,0v0.2
		c0,0.9,0.4,1.8,1,2.5l-0.4-0.1l4.6,4.6c0,0,0,0,0.1,0.1l0.4,0.5l0,0l0.1,0.1c0.7,0.6,1.7,1,2.6,1c1,0,2.1-0.4,2.8-1.1l0,0l1.6-1.7
		c0,0,0-0.1,0.1-0.1l5.7-5.8c0,0,0,0,0.1-0.1l2.5-2.6c0.1-0.1,0.3-0.3,0.5-0.4l0,0l0,0c0.9-0.7,2-1.2,3.2-1.3l0,0l0,0l0,0
		c0.1,0,0.3,0.1,0.3,0.2l0,0l0,0l0,0l0,0l0,0l0,0l0,0l0,0v13.7c0,0.2-0.1,0.4-0.3,0.4h-0.1h-26c-0.2,0-0.4-0.2-0.4-0.4l0,0V20.5l0,0
		C8.6,18,10.7,15.7,13.4,15.7z M15.3,29.5v0.9h1.8C16.4,30.3,15.8,30,15.3,29.5z M9.4,23.5v7h2v-4.9l-1.5-1.5l0,0L9.8,24
		C9.7,23.8,9.5,23.7,9.4,23.5z M12.3,26.5v3.9h2.2v-1.8L12.3,26.5z M22.8,28.3l-0.9,0.9l0,0c-0.6,0.6-1.2,1-2,1.2h2.9V28.3z
		 M25.6,25.4l-2.1,2.1v3h2.1V25.4z M28.5,22.5l-2,2.1v5.9h2V22.5z M31.5,19.5l-2.2,2.2v8.8h2.2V19.5z M34.5,17.7
		c-0.7,0.1-1.6,0.5-2.2,0.9v11.8h2.2V17.7z M22.9,4.5c0.2,0,0.4,0.2,0.4,0.4l0.3,5.5l3.7-0.6c0.2,0,0.3,0,0.4,0.2
		c0.1,0.1,0.1,0.3,0,0.4l-2.1,4.2c-0.1,0.1-0.2,0.2-0.4,0.2h-1.3l0.7,8.7c0,0.2-0.2,0.4-0.4,0.4c-0.2,0-0.4-0.2-0.4-0.4l-0.7-9.1
		c0-0.1,0-0.2,0.1-0.3s0.2-0.1,0.3-0.1h1.6l1.7-3.1l-3.3,0.5h-0.1l0,0l-0.7,0.1l0,0l-2.5,0.4l0.1,2h2c0.1,0,0.2,0,0.3,0.1
		c0.1,0.1,0.1,0.2,0.1,0.3l-0.9,12.3c0,0.2-0.2,0.4-0.4,0.4l0,0c-0.2,0-0.4-0.2-0.4-0.4l0.9-11.8H20c-0.2,0-0.4-0.2-0.4-0.4
		l-0.2-2.8c0-0.2,0.1-0.4,0.3-0.4l2.5-0.4L22.6,5C22.5,4.7,22.7,4.5,22.9,4.5L22.9,4.5z M15.3,17.1v7.5l1-1l0,0l0.1-0.1
		c0.6-0.7,1-1.7,1-2.7l0,0l0,0v-0.2C17.4,19.1,16.5,17.7,15.3,17.1z"/>
</g>
</svg>
