<?xml version="1.0" encoding="utf-8"?>
<svg version="1.1" xmlns="http://www.w3.org/2000/svg" xmlns:xlink="http://www.w3.org/1999/xlink" x="0px" y="0px"
	 viewBox="0 0 44 50" enable-background="new 0 0 44 50" xml:space="preserve">
<g>
	<g>
		<path fill-rule="evenodd" clip-rule="evenodd" fill="#1A2C56" d="M1,21.6C1,10.3,10.4,1,21.9,1c11.6,0,21,9.3,21,20.6
			c0,6.2-2.8,11.8-7.3,15.6L24.8,47.9l0,0c-1.5,1.5-4.1,1.5-5.7,0L8,37c-0.6-0.5-1.2-1.1-1.8-1.7l0-0.1l0,0C2.9,31.6,1,26.7,1,21.6z
			"/>
		<path fill="#FFFFFF" d="M21.9,50c-1.3,0-2.6-0.5-3.5-1.4L7.3,37.7c-0.6-0.5-1.2-1.1-1.8-1.7l-0.3-0.3v-0.1C1.8,31.7,0,26.8,0,21.6
			C0,9.7,9.8,0,21.9,0C34.1,0,44,9.7,44,21.6c0,6.2-2.8,12.2-7.6,16.3L25.5,48.6C24.6,49.5,23.3,50,21.9,50z M7.2,34.9
			c0.5,0.5,1,1,1.5,1.4l11.2,10.9c1.1,1.1,3.1,1.1,4.2,0L35,36.5c4.5-3.8,7-9.2,7-14.9C42,10.8,33,2,21.9,2C11,2,2,10.8,2,21.6
			c0,4.8,1.7,9.4,4.9,12.9L7.2,34.9z"/>
	</g>
</g>
<g>
	<path fill="#FFFFFF" d="M17.4,23.6c0.1-0.1,0.3-0.1,0.5,0H18l0.8,0.8c0.1,0.1,0.1,0.3,0.1,0.5V25l-6,7
		c-0.7,0.7-1.8,0.7-2.4,0c-0.7-0.7-0.7-1.8,0-2.4l0.1-0.1L17.4,23.6z M10.8,9.7c0-0.3,0.4-0.5,0.6-0.3h0.1l20.1,19.7
		c0.7,0.7,0.7,1.7,0,2.4c-0.7,0.7-1.8,0.7-2.5,0L29,31.4l-5.3-6.3l0,0c-1,0.7-2.4,0.5-3.5-0.3l-0.1-0.1l-0.3-0.3L19.4,24L19,23.6
		c-0.1-0.1-0.3-0.3-0.4-0.4c-1.1-1.1-2.1-2.3-3.1-3.6c-2.2-2.9-3.7-5.7-4.3-8.3C10.9,10.7,10.8,10.2,10.8,9.7z M17.6,24.4L10.9,30
		c-0.4,0.3-0.5,1-0.1,1.4c0.3,0.3,0.9,0.4,1.2,0.1l0.1-0.1l5.7-6.7L17.6,24.4z M11.7,10.7l0.1,0.4c0.6,2.5,2.1,5.3,4.2,8
		c1,1.3,2,2.5,3.1,3.6l0.2,0.2l0,0l0.4,0.4l0.5,0.5l0.4,0.4c0.9,0.8,2.1,0.9,2.8,0.2l0.1-0.1c0.1-0.1,0.4-0.1,0.5,0l0.1,0.1l5.6,6.6
		c0.4,0.4,1,0.4,1.4,0.1c0.3-0.3,0.4-0.9,0.1-1.2l-0.1-0.1L11.7,10.7z M30.2,8.4c0.1,0.1,0.2,0.3,0,0.5V9l-4.1,4.1
		c-0.7,0.7-0.9,1.6-0.7,2.5l5.8-5.8c0.2-0.2,0.4-0.2,0.6,0c0.1,0.1,0.2,0.3,0,0.5v0.1l-6.1,6c0.1,0.2,0.2,0.3,0.4,0.4
		c0.2,0.2,0.3,0.3,0.5,0.4l6.1-6c0.2-0.2,0.4-0.2,0.6,0c0.1,0.1,0.2,0.3,0,0.5v0.1l-5.8,5.7c0.8,0.2,1.7,0,2.3-0.6l0.1-0.1l4.1-4.1
		c0.2-0.2,0.4-0.2,0.6,0c0.1,0.1,0.2,0.3,0,0.5v0.1l-4.1,4.1c-1.2,1.2-3.2,1.3-4.5,0.3l-2.2,2.2c-0.2,0.2-0.4,0.2-0.6,0
		c-0.1-0.1-0.2-0.3,0-0.5v-0.1l2.2-2.2c-1-1.3-1-3.1,0.1-4.3l0.1-0.1l4-4.3C29.8,8.2,30,8.2,30.2,8.4z"/>
</g>
</svg>
